<svg xmlns="http://www.w3.org/2000/svg" viewBox="0 0 78.87 80"><defs><style>.a{fill:#fff;stroke:#012b65;stroke-width:5px;}.b{fill:#012b65;}.c{stroke:none;}.d{fill:none;}</style></defs><g transform="translate(-537 -507)"><g class="a" transform="translate(537 507)"><rect class="c" width="78.87" height="80" rx="15"/><rect class="d" x="2.5" y="2.5" width="73.87" height="75" rx="12.5"/></g><g transform="translate(544.435 530.004)"><path class="b" d="M64.392,144.395c0,10.693-53.7,22.5-57.765,22.5-2.28,0-4.866-.5-4.866-2.522,0-.674.81-1.648,2.233-2.823h0l-3.769-6.43a1.626,1.626,0,0,1,.86-2.345l.648-.249a4.466,4.466,0,0,1,3.613.184l6.843,3.478c2.664-1.517,5.687-3.105,8.872-4.669L7.723,143.211a1.618,1.618,0,0,1,.021-2.785l1.091-.658a8.022,8.022,0,0,1,6.1-.894l22.185,5.617c6.917-2.636,13.171-4.434,16.873-4.434.989,0,1.979.025,2.934.091l-6.7,2.9-.16,2.163L60.4,140.651C62.883,141.218,64.392,142.278,64.392,144.395ZM37.4,162.854l8.275,9.024a1.771,1.771,0,0,0,2.018.407l1.108-.495a4.924,4.924,0,0,0,2.952-5.071l-1.036-8.5a.861.861,0,0,0-1.141-.683l-11.817,4A.813.813,0,0,0,37.4,162.854Z" transform="translate(0 -138.628)"/></g></g></svg>