<svg xmlns="http://www.w3.org/2000/svg" viewBox="0 0 80 80"><defs><style>.a{fill:#fff;stroke:#012b65;stroke-width:5px;}.b{fill:#012b65;}.c{stroke:none;}.d{fill:none;}</style></defs><g transform="translate(-943 -275)"><g transform="translate(943 275)"><g class="a"><rect class="c" width="80" height="80" rx="15"/><rect class="d" x="2.5" y="2.5" width="75" height="75" rx="12.5"/></g><g transform="translate(13.544 19.304)"><path class="b" d="M1.862,27.954V2.556A2.426,2.426,0,0,1,4.134,0H26.7a2.426,2.426,0,0,1,2.272,2.556v25.4a.809.809,0,0,1-.757.852H2.62A.809.809,0,0,1,1.862,27.954Zm18.226,8.7c0,2.927-2.11,5.3-4.713,5.3s-4.713-2.373-4.713-5.3,2.11-5.3,4.713-5.3S20.089,33.728,20.089,36.655Zm-2.356,0a2.516,2.516,0,0,0-2.356-2.65,2.669,2.669,0,0,0,0,5.3A2.516,2.516,0,0,0,17.732,36.655Zm-6.415-5.3H.757A.809.809,0,0,0,0,32.207v2.584a.809.809,0,0,0,.757.852H9.222A7.264,7.264,0,0,1,11.317,31.355Zm33.428,5.3c0,2.927-2.11,5.3-4.713,5.3s-4.713-2.373-4.713-5.3,2.11-5.3,4.713-5.3S44.745,33.728,44.745,36.655Zm-2.356,0a2.373,2.373,0,1,0-2.356,2.65A2.516,2.516,0,0,0,42.389,36.655Zm10.687-4.449v2.584a.809.809,0,0,1-.757.852H46.187c-.439-3.383-3.027-5.992-6.154-5.992s-5.716,2.609-6.155,5.992H21.531a7.264,7.264,0,0,0-2.1-4.288H31.143V6.989a1.618,1.618,0,0,1,1.515-1.7h7.15a5.906,5.906,0,0,1,5.021,3l4.609,7.679a7.43,7.43,0,0,1,1.037,3.813V31.355h1.843A.809.809,0,0,1,53.076,32.207ZM45.393,16.162l-3.686-5.891a.736.736,0,0,0-.619-.362h-5.75a.809.809,0,0,0-.757.852v5.891a.809.809,0,0,0,.757.852h9.436A.862.862,0,0,0,45.393,16.162Z" transform="translate(0 0)"/></g></g></g></svg>