<svg xmlns="http://www.w3.org/2000/svg" viewBox="0 0 80 80"><defs><style>.a{fill:#fff;stroke:#012b65;stroke-width:5px;}.b{fill:#012b65;}.c{stroke:none;}.d{fill:none;}</style></defs><g transform="translate(-674 -275)"><g class="a" transform="translate(674 275)"><rect class="c" width="80" height="80" rx="15"/><rect class="d" x="2.5" y="2.5" width="75" height="75" rx="12.5"/></g><g transform="translate(681.916 284.399)"><path class="b" d="M64.216,28.752l-7.58,17.122a5.492,5.492,0,0,1-4.911,3.244H7.027a1.2,1.2,0,0,1-.987-1.738l.019-.04A3.109,3.109,0,0,0,5.212,43.6l-.062-.048A10.777,10.777,0,0,1,1.105,35.03V31.148H40.9v-.024a2.286,2.286,0,0,1,2.188-2.372ZM38.686,14.376H30.949a1.154,1.154,0,0,0-1.105,1.2V28.752a1.155,1.155,0,0,0,1.105,1.2h7.737a1.155,1.155,0,0,0,1.105-1.2V15.574A1.154,1.154,0,0,0,38.686,14.376ZM51.95,19.168H43.107A1.154,1.154,0,0,0,42,20.366v4.792a1.155,1.155,0,0,0,1.105,1.2H51.95a1.155,1.155,0,0,0,1.105-1.2V20.366A1.154,1.154,0,0,0,51.95,19.168ZM17.685,29.949h8.842a1.154,1.154,0,0,0,1.105-1.2V19.168a1.154,1.154,0,0,0-1.105-1.2H17.685a1.154,1.154,0,0,0-1.105,1.2v9.584A1.155,1.155,0,0,0,17.685,29.949Zm-.566-17.97-2.75,2.4V29.949H3.316V14.376H0v-2.4H7.737V8.506H4.88v-1.4H7.737V0H8.842V7.108H11.7v1.4H8.842V11.98Zm-4.747,9.857h-3.6v3.577h3.6Zm0-5.733h-3.6v3.578h3.6Z" transform="translate(0 0)"/></g></g></svg>