<svg xmlns="http://www.w3.org/2000/svg" viewBox="0 0 80 80"><defs><style>.a{fill:#fff;stroke:#012b65;stroke-width:5px;}.b{fill:#012b65;}.c{stroke:none;}.d{fill:none;}</style></defs><g transform="translate(-188 -507)"><g transform="translate(188 507)"><g class="a"><rect class="c" width="80" height="80" rx="15"/><rect class="d" x="2.5" y="2.5" width="75" height="75" rx="12.5"/></g><g transform="translate(12.901 16.49)"><path class="b" d="M33.194,14.293a10,10,0,0,1,4.651,7.425,8.064,8.064,0,1,0-4.651-7.425ZM27.909,30.811a8.067,8.067,0,1,0-8.069-8.067A8.067,8.067,0,0,0,27.909,30.811Zm3.422.55H24.485A10.341,10.341,0,0,0,14.156,41.69v8.371l.021.131.577.181A47.017,47.017,0,0,0,28.8,52.638c7.592,0,11.992-2.164,12.263-2.3l.539-.273h.058V41.69A10.338,10.338,0,0,0,31.331,31.36Zm13.347-8.328H37.885a9.942,9.942,0,0,1-3.068,6.925A12.274,12.274,0,0,1,43.583,41.7v2.58a27.8,27.8,0,0,0,10.826-2.274l.539-.273h.058V33.361A10.341,10.341,0,0,0,44.677,23.032Zm-30.924-.549a8.014,8.014,0,0,0,4.29-1.245A9.984,9.984,0,0,1,21.8,14.87c.008-.151.023-.3.023-.453a8.067,8.067,0,1,0-8.066,8.066ZM21,29.957a9.948,9.948,0,0,1-3.066-6.887c-.252-.019-.5-.038-.758-.038H10.329A10.341,10.341,0,0,0,0,33.361v8.373l.021.129.577.182A48.429,48.429,0,0,0,12.23,44.231V41.7A12.276,12.276,0,0,1,21,29.957Z" transform="translate(0 -6.348)"/></g></g></g></svg>