<svg xmlns="http://www.w3.org/2000/svg" viewBox="0 0 80 80"><defs><style>.a{fill:#fff;stroke:#012b65;stroke-width:5px;}.b{fill:#012b65;}.c{stroke:none;}.d{fill:none;}</style></defs><g transform="translate(-809 -474)"><g transform="translate(809 474)"><g class="a"><rect class="c" width="80" height="80" rx="15"/><rect class="d" x="2.5" y="2.5" width="75" height="75" rx="12.5"/></g><g transform="translate(25.051 15.43)"><path class="b" d="M110.363,14.056c-.275-.071-.819-.207-.819-.207V7.8c0-1.289-1.058-2.472-2.932-2.952a27.81,27.81,0,0,0-5.963-1.038A2.168,2.168,0,1,0,97.691,3.7H95.48a2.17,2.17,0,1,0-2.956.106,27.808,27.808,0,0,0-5.963,1.038c-1.874.48-2.932,1.663-2.932,2.952l0,6.054s-.544.136-.819.207a1.482,1.482,0,0,0-1.11,1.435V33.823A1.482,1.482,0,0,0,83.18,35.3h26.811a1.482,1.482,0,0,0,1.482-1.482V15.49A1.481,1.481,0,0,0,110.363,14.056ZM87.039,8.249a39.82,39.82,0,0,1,7.522-1.12v4.73a40.972,40.972,0,0,0-7.522,1.088Zm9.6,13.227h-.1a3.174,3.174,0,0,1,0-6.348h.1a3.174,3.174,0,0,1,0,6.348Zm9.5-8.53a40.958,40.958,0,0,0-7.522-1.088V7.128a39.82,39.82,0,0,1,7.522,1.12v4.7Z" transform="translate(-81.698)"/><path class="b" d="M178.193,350.645h-6.557l-.859,2.416q2.046.174,4.088.176h.1q2.04,0,4.088-.176Z" transform="translate(-160.027 -308.329)"/><path class="b" d="M120.7,311.2v-3.742a1.335,1.335,0,0,0-1.335-1.335H95.193a1.336,1.336,0,0,0-1.335,1.335V311.2a1.336,1.336,0,0,0,1,1.293q.564.146,1.129.278l-1.622,3.676a1.587,1.587,0,1,0,2.9,1.281l1.9-4.316q.687.115,1.375.211l1.359-3.821a1.269,1.269,0,0,1,1.2-.844h8.348a1.27,1.27,0,0,1,1.2.844l1.359,3.821q.688-.1,1.375-.211l1.9,4.316a1.587,1.587,0,0,0,2.9-1.281l-1.622-3.676q.565-.132,1.129-.278A1.335,1.335,0,0,0,120.7,311.2Z" transform="translate(-92.391 -269.175)"/></g></g></g></svg>