<svg xmlns="http://www.w3.org/2000/svg" viewBox="0 0 75.62 80"><defs><style>.a{fill:#fff;stroke:#012b65;stroke-width:5px;}.b{fill:#012b65;}.c{stroke:none;}.d{fill:none;}</style></defs><g transform="translate(-341 -507)"><g transform="translate(338.81 507)"><g transform="translate(0)"><g class="a" transform="translate(2.19)"><rect class="c" width="75.62" height="80" rx="15"/><rect class="d" x="2.5" y="2.5" width="70.62" height="75" rx="12.5"/></g><g transform="translate(8 25.241)"><g transform="translate(8.735 18.163)"><g transform="translate(0 0)"><path class="b" d="M5.46,0a5.46,5.46,0,1,0,5.46,5.46A5.466,5.466,0,0,0,5.46,0Zm0,8.735A3.276,3.276,0,1,1,8.735,5.46,3.28,3.28,0,0,1,5.46,8.735Z" transform="translate(0 0)"/></g></g><g transform="translate(0 0)"><g transform="translate(0 0)"><path class="b" d="M62.529,18.394V12.073a1.054,1.054,0,0,0-.725-1L55.825,9.092C53.573,5.3,50.477,1.693,43.636.5L43.6.5c-12.634-1.736-22.119,1.1-28.209,8.422-4.533.065-9.16,1.007-11.882,2.739a5.15,5.15,0,0,0-2.324,4.122L1.06,18.394A1.057,1.057,0,0,0,0,19.448v4.214a1.057,1.057,0,0,0,1.06,1.053H5.3a1.063,1.063,0,0,0,1.06-1.065c0-.005,0-.01,0-.017a7.418,7.418,0,0,1,14.836.028.961.961,0,0,0,1.06,1.053H41.333a1.063,1.063,0,0,0,1.06-1.065c0-.005,0-.01,0-.017a7.418,7.418,0,0,1,14.836.028.961.961,0,0,0,1.06,1.053h4.239a1.057,1.057,0,0,0,1.06-1.053V19.447A1.056,1.056,0,0,0,62.529,18.394ZM33.914,8.387a.529.529,0,0,1-.53.527H19.563a.529.529,0,0,1-.351-.926A23.354,23.354,0,0,1,33.33,2.243a.539.539,0,0,1,.584.531Zm12.733.005a.529.529,0,0,1-.53.521H36.564a.529.529,0,0,1-.53-.527V2.635A.53.53,0,0,1,36.56,2.1a49.027,49.027,0,0,1,6.727.477,17.945,17.945,0,0,1,3.059.8.528.528,0,0,1,.343.5Zm5.531.521H49.3a.528.528,0,0,1-.53-.532l.028-2.855a.534.534,0,0,1,.856-.414A13.971,13.971,0,0,1,52.6,8.061.529.529,0,0,1,52.178,8.913Z" transform="translate(0 0)"/></g></g><g transform="translate(43.935 18.163)"><g transform="translate(0 0)"><path class="b" d="M5.46,0a5.46,5.46,0,1,0,5.46,5.46A5.466,5.466,0,0,0,5.46,0Zm0,8.735A3.276,3.276,0,1,1,8.735,5.46,3.28,3.28,0,0,1,5.46,8.735Z" transform="translate(0 0)"/></g></g></g></g></g></g></svg>